<?xml version="1.0" encoding="UTF-8" standalone="yes"?>
<svg xmlns="http://www.w3.org/2000/svg" viewBox="0 0 24 24" width="24" height="24" fill="#000000">
  <path d="M 12 3 A 4 4 0 0 0 8 7 A 4 4 0 0 0 12 11 A 4 4 0 0 0 16 7 A 4 4 0 0 0 12 3 z M 12 14 C 8.996 14 3 15.508 3 18.5 L 3 20 C 3 20.552 3.448 21 4 21 L 10.457031 21 L 11.125 17 L 10.957031 16.333984 C 10.788031 15.655984 11.302 15 12 15 C 12.698 15 13.211969 15.655984 13.042969 16.333984 L 12.875 17 L 13.542969 21 L 20 21 C 20.552 21 21 20.552 21 20 L 21 18.5 C 21 15.508 15.004 14 12 14 z"/>
</svg>
